<?xml version="1.0" encoding="UTF-8" standalone="no"?>
<svg
   xmlns:osb="http://www.openswatchbook.org/uri/2009/osb"
   xmlns:dc="http://purl.org/dc/elements/1.1/"
   xmlns:cc="http://creativecommons.org/ns#"
   xmlns:rdf="http://www.w3.org/1999/02/22-rdf-syntax-ns#"
   xmlns:svg="http://www.w3.org/2000/svg"
   xmlns="http://www.w3.org/2000/svg"
   xmlns:sodipodi="http://sodipodi.sourceforge.net/DTD/sodipodi-0.dtd"
   xmlns:inkscape="http://www.inkscape.org/namespaces/inkscape"
   width="150"
   height="150"
   viewBox="0 0 150 150"
   fill="none"
   version="1.1"
   id="svg4"
   sodipodi:docname="logo.svg"
   inkscape:version="0.92.4 (5da689c313, 2019-01-14)">
  <metadata
     id="metadata10">
    <rdf:RDF>
      <cc:Work
         rdf:about="">
        <dc:format>image/svg+xml</dc:format>
        <dc:type
           rdf:resource="http://purl.org/dc/dcmitype/StillImage" />
        <dc:title />
      </cc:Work>
    </rdf:RDF>
  </metadata>
  <defs
     id="defs8">
    <linearGradient
       id="linearGradient5988"
       osb:paint="solid">
      <stop
         style="stop-color:#ffd600;stop-opacity:1;"
         offset="0"
         id="stop5986" />
    </linearGradient>
  </defs>
  <sodipodi:namedview
     pagecolor="#ffffff"
     bordercolor="#666666"
     borderopacity="1"
     objecttolerance="10"
     gridtolerance="10"
     guidetolerance="10"
     inkscape:pageopacity="0"
     inkscape:pageshadow="2"
     inkscape:window-width="1920"
     inkscape:window-height="1001"
     id="namedview6"
     showgrid="false"
     inkscape:zoom="3.1466667"
     inkscape:cx="-53.36204"
     inkscape:cy="93.355994"
     inkscape:window-x="-9"
     inkscape:window-y="-9"
     inkscape:window-maximized="1"
     inkscape:current-layer="svg4" />
  <path
     d="m 134.85389,82.108564 c -1.18045,0 -5.6665,1.655902 -8.02739,2.602191 -0.23575,-0.946289 -1.18045,-1.655901 -2.36089,-1.655901 -1.18045,0 -2.36175,0.709612 -2.36175,1.655901 l -4.48603,-0.709696 c -0.70811,-9.698812 -4.48605,-18.214742 -10.3883,-25.074854 l 2.59666,-3.784905 c 0.70894,0.473103 2.12514,0.473103 2.83325,-0.473102 0.94469,-0.946206 1.18128,-2.129003 0.47234,-2.838699 2.36174,-0.946205 6.84778,-2.838616 7.55588,-3.784904 0.9447,-1.182711 0.23576,-3.548311 -1.41704,-5.440721 -1.88856,-1.655903 -4.24945,-2.3656 -5.4299,-1.419313 -0.94469,0.709615 -2.83408,5.204215 -3.77794,7.56973 -0.70894,-0.473103 -2.12514,-0.236509 -2.83325,0.473101 -0.94469,0.946207 -1.18045,2.129003 -0.47234,2.8387 l -3.77794,2.602106 C 96.132307,48.754291 87.395893,44.969382 77.951376,44.259776 l -0.70827,-4.4946 c 0.944444,-0.236508 1.652714,-1.182794 1.652714,-2.365518 0,-1.182795 -0.70827,-2.129 -1.652714,-2.36559 0.944444,-2.365518 2.597156,-6.860087 2.597156,-8.042862 -0.236089,-1.655892 -2.361066,-2.838666 -4.958306,-2.838666 -2.597239,0 -4.722215,1.182774 -4.958389,2.838666 0,1.182775 1.652797,5.677344 2.59724,8.042862 -0.944443,0.23659 -1.652713,1.182795 -1.652713,2.36559 0,1.182724 0.70827,2.365518 1.652713,2.365518 l -0.708269,4.4946 c -9.680606,0.709616 -18.180596,4.494515 -25.027872,10.408422 l -3.777771,-2.602106 c 0.47218,-0.709697 0.47218,-2.129002 -0.472265,-2.8387 -0.944443,-0.946205 -2.124977,-1.182797 -2.833329,-0.473101 -0.944443,-2.365515 -2.833329,-6.623515 -3.777773,-7.56972 -1.180533,-0.946297 -3.541683,-0.2366 -5.19448,1.655811 -1.888887,1.655902 -2.597157,4.021502 -1.652713,5.440806 0.70827,0.946205 5.194396,2.838699 7.555546,3.784905 -0.472263,0.709611 -0.236089,2.129003 0.47218,2.838615 0.944528,0.946288 2.125061,1.182798 2.833414,0.473186 l 2.597156,3.784821 c -5.90275,6.860112 -9.680522,15.612636 -10.388875,25.074854 l -4.486128,0.709696 c -0.23609,-0.946205 -1.180532,-1.655902 -2.361065,-1.655902 -1.180617,0 -2.125061,0.709697 -2.36115,1.655902 -2.36115,-0.946205 -6.847243,-2.602106 -8.027801,-2.602106 -1.65278,0.236592 -2.833338,2.365596 -2.833338,4.967702 0,2.602105 1.180558,4.731109 2.833338,4.967619 1.180558,0 5.666651,-1.655901 8.027801,-2.602106 0.236089,0.946204 1.180533,1.6559 2.36115,1.6559 1.180533,0 2.361065,-0.709696 2.361065,-1.6559 l 4.486128,0.709696 c 0.708353,9.69873 4.486125,18.21482 10.388875,25.07519 l -2.361066,3.54806 c -0.708354,-0.47319 -2.124976,-0.47319 -2.83333,0.47319 -0.944443,0.94637 -1.180617,2.1285 -0.472263,2.83828 -2.361066,0.94637 -6.611104,2.83912 -7.555547,3.78549 -0.944443,1.18213 -0.23609,3.54805 1.416623,5.4408 1.888971,1.89191 4.250037,2.60169 5.43057,1.41872 0.944443,-0.70978 2.833413,-5.2042 3.777857,-7.5693 0.70827,0.47319 2.124976,0.2366 2.833329,-0.47318 0.944444,-0.94638 1.180533,-2.12935 0.47218,-2.83913 l 3.777773,-2.60168 c 6.847276,5.91399 15.583355,9.69864 25.027871,10.40842 l 0.708353,4.49443 c -0.944442,0.2366 -1.652795,1.18297 -1.652795,2.36594 0,1.18213 0.708353,2.1285 1.652795,2.36509 -0.944442,2.36593 -2.597239,6.86036 -2.597239,8.04333 0.236089,1.65531 2.361066,2.83828 4.958305,2.83828 2.59724,0 4.722216,-1.18297 4.958389,-2.83828 0,-1.18297 -1.652797,-5.6774 -2.59724,-8.04333 0.944444,-0.23659 1.652798,-1.18296 1.652798,-2.36509 0,-1.18297 -0.708354,-2.36594 -1.652798,-2.36594 l 0.708354,-4.49443 c 9.680522,-0.70978 18.180511,-4.49443 25.02745,-10.40842 l 3.77794,2.60168 c -0.47235,0.70978 -0.47235,2.12934 0.47234,2.83913 0.9447,0.94637 2.12516,1.18296 2.83325,0.47318 0.9447,2.3651 2.83325,6.85952 3.77794,7.5693 1.18045,0.94638 3.54136,0.2366 5.43075,-1.41872 1.88854,-1.89275 2.59664,-4.25867 1.4162,-5.4408 -0.70811,-0.94637 -5.19415,-2.83912 -7.55505,-3.78549 0.47235,-0.70978 0.23576,-2.1285 -0.47234,-2.83828 -0.9447,-0.94638 -2.12515,-1.18297 -2.83325,-0.47319 l -2.5975,-3.78466 c 5.90309,-6.86037 9.68103,-15.612974 10.38914,-25.075184 l 4.48603,-0.709611 c 0.23577,0.946205 1.18046,1.655817 2.36091,1.655817 1.18045,0 2.12514,-0.709612 2.36089,-1.655817 2.36174,0.946205 6.84778,2.602106 8.02823,2.602106 1.6528,-0.236594 2.83325,-2.365597 2.83325,-4.967703 -0.47235,-2.365513 -1.65279,-4.731109 -3.06984,-4.967704 z m -96.805301,6.623604 c -0.944528,0 -1.652797,-0.709696 -1.652797,-1.6559 0,-0.946205 0.708269,-1.6559 1.652797,-1.6559 0.944442,0 1.652712,0.709695 1.652712,1.6559 0,0.946204 -0.70827,1.6559 -1.652712,1.6559 z M 99.673658,59.872409 c 0.708102,-0.709695 1.652792,-0.709695 2.360892,0 0.70894,0.709696 0.70894,1.655902 0,2.365513 -0.7081,0.709696 -1.65279,0.709696 -2.360892,0 -0.472353,-0.709611 -0.472353,-1.655817 0,-2.365513 z M 74.881956,48.75429 c 0.944445,0 1.652798,0.709696 1.652798,1.655901 0,0.946204 -0.708353,1.655901 -1.652798,1.655901 -0.944441,0 -1.652795,-0.709697 -1.652795,-1.655901 0,-0.946205 0.708354,-1.655901 1.652795,-1.655901 z M 47.72911,59.872409 c 0.708353,-0.709695 1.652796,-0.709695 2.361149,0 0.708353,0.709696 0.708353,1.655902 0,2.365513 -0.708353,0.709696 -1.652796,0.709696 -2.361149,0 -0.47218,-0.709611 -0.47218,-1.655817 0,-2.365513 z m 4.250035,6.860113 1.888887,1.892411 c 0.47218,0.473102 0.944443,0.473102 1.416622,0.236592 l 2.597241,2.602106 c -0.708354,1.655902 0,4.258008 2.12506,6.387011 2.361067,2.365513 5.66666,3.075208 7.083283,1.655817 -1.888886,1.892494 -3.06942,4.4946 -3.06942,7.333215 v -0.709612 h -9.208343 c -0.23609,0 -0.472263,-0.236593 -0.472263,-0.709696 0,-0.473102 0.236173,-0.709611 0.472263,-0.709611 h 9.680607 v -0.236594 c 0,-0.709695 -0.708354,-1.419307 -1.416707,-1.419307 h -9.208343 c -0.472264,0 -1.652797,1.419307 -2.36115,2.602106 h -2.833329 c -0.23609,-0.473103 -0.708354,-0.946205 -1.180534,-0.946205 H 44.4236 c 0.47218,-6.623603 3.069419,-13.010614 7.555545,-17.978233 z M 50.090259,114.2803 c -0.708353,0.70978 -1.652796,0.70978 -2.361149,0 -0.708354,-0.70978 -0.708354,-1.65616 0,-2.36595 0.708353,-0.70978 1.652796,-0.70978 2.361149,0 0.708353,0.70979 0.708353,1.65617 0,2.36595 z M 51.979145,107.42 C 47.49302,102.45239 44.659691,95.82879 44.187427,88.732168 h 3.069503 c 0.47218,0 1.180533,-0.473102 1.180533,-0.946205 h 2.597239 c 0.708354,1.182716 1.888887,2.838615 2.361066,2.838615 h 9.208343 c 0.708354,0 1.416707,-0.473103 1.416707,-1.182714 v -0.473185 h -9.208343 c -0.23609,0 -0.472263,-0.23651 -0.472263,-0.709613 0,-0.473103 0.236173,-0.709695 0.472263,-0.709695 h 9.680607 v -0.709697 c 0,2.8387 1.180533,5.440806 3.06942,7.3333 -1.416708,-1.419392 -4.722217,-0.709695 -7.083367,1.655817 -2.124977,2.129 -2.833331,4.731109 -2.124977,6.387009 l -2.59724,2.6021 c -0.472264,-0.23651 -1.180533,-0.23651 -1.416706,0.2366 z m 22.902811,18.2151 c -0.944442,0 -1.652796,-0.70978 -1.652796,-1.65616 0,-0.94637 0.708354,-1.65615 1.652796,-1.65615 0.944444,0 1.652797,0.70978 1.652797,1.65615 0,0.94638 -0.708353,1.65616 -1.652797,1.65616 z m 27.152594,-11.3548 c -0.7081,0.70978 -1.65279,0.70978 -2.360893,0 -0.708105,-0.70978 -0.708105,-1.65616 0,-2.36595 0.708103,-0.70978 1.652793,-0.70978 2.360893,0 0.70894,0.70979 0.70894,1.65617 0,2.36595 z M 97.785104,107.42 95.895881,105.52759 C 95.423617,105.0545 94.951437,105.0545 94.479174,105.291 l -2.597156,-2.60209 c 0.708269,-1.65591 -8.4e-5,-4.258018 -2.12506,-6.387018 -2.361066,-2.365512 -5.66666,-3.075208 -7.083366,-1.655817 -1.416623,1.419308 -0.708269,4.731101 1.652797,7.096625 2.125059,2.12899 4.722215,2.83869 6.375012,2.12899 l 2.597241,2.60211 c -0.236091,0.47311 -0.236091,1.18279 0.236089,1.41931 l 1.888886,1.89274 c -4.958305,4.49445 -11.333319,7.33273 -18.416685,7.80591 v -3.07487 c 0,-0.47318 -0.472179,-1.18297 -0.944443,-1.18297 v -2.83829 c 0.944443,-0.70978 2.59724,-1.89274 2.59724,-2.36593 v -9.225624 c 0,-0.709693 -0.708353,-1.419389 -1.416623,-1.419389 h -0.236174 v 9.698813 c 0,0.2365 -0.236089,0.47309 -0.708269,0.47309 -0.472263,0 -0.708354,-0.23659 -0.708354,-0.47309 v -9.462219 h -0.708353 -0.708352 v 9.462219 c 0,0.2365 -0.23609,0.47309 -0.708354,0.47309 -0.472179,0 -0.70827,-0.23659 -0.70827,-0.47309 v -9.462219 h -0.472263 c -0.708353,0 -1.180532,0.709611 -1.180532,1.419305 v 9.225704 c 0,0.47319 1.652795,1.65616 2.83333,2.3651 v 2.60253 c -0.472264,0.2366 -0.944444,0.70979 -0.944444,1.18297 v 3.07487 c -7.083366,-0.47318 -13.694469,-3.31146 -18.652859,-7.80591 l 1.888886,-1.89274 c 0.472265,-0.47311 0.472265,-0.9462 0.236173,-1.41931 l 2.597243,-2.60211 c 1.652712,0.7097 4.249952,0 6.375012,-2.12899 2.361065,-2.365524 3.069419,-5.677317 1.652713,-7.096625 1.888886,1.892411 4.486126,3.075206 7.319456,3.075206 5.902832,0 10.388958,-4.731105 10.388958,-10.40842 0,-5.913908 -4.722216,-10.408507 -10.388958,-10.408507 -2.83333,0 -5.43057,1.182798 -7.319456,3.075291 1.416706,-1.419392 0.708353,-4.731109 -1.652713,-7.096706 -2.12506,-2.129003 -4.7223,-2.838615 -6.375012,-2.129003 L 56.465272,68.15183 c 0.236091,-0.473102 0.236091,-1.182799 -0.236173,-1.419308 l -1.888886,-1.892493 c 4.95839,-4.494517 11.569492,-7.333216 18.652858,-7.806318 v 3.075208 c 0,0.473186 0.472179,1.182798 0.944444,1.182798 v 2.602106 c -1.180534,0.709696 -2.83333,1.892494 -2.83333,2.365597 v 9.225625 c 0,0.709696 0.472179,1.419308 1.180532,1.419308 h 0.472263 v -9.935322 c 0,-0.236509 0.236091,-0.473102 0.70827,-0.473102 0.472264,0 0.708354,0.236593 0.708354,0.473102 v 9.698813 h 0.708352 0.708354 v -9.698813 c 0,-0.236509 0.236091,-0.473102 0.708354,-0.473102 0.472179,0 0.708269,0.236593 0.708269,0.473102 v 9.698813 h 0.236174 c 0.70827,0 1.416623,-0.709696 1.416623,-1.419308 v -9.22571 c 0,-0.473102 -1.416623,-1.655901 -2.59724,-2.365512 v -2.8387 c 0.472264,-0.236509 0.944443,-0.709695 0.944443,-1.182798 v -3.075208 c 7.083366,0.473103 13.45838,3.311801 18.416685,7.569808 l -1.888886,1.89241 c -0.47218,0.473103 -0.47218,0.946205 -0.236089,1.419392 l -2.597241,2.602022 c -1.652797,-0.709612 -4.249953,8.4e-5 -6.375012,2.129088 -2.361066,2.365512 -3.06942,5.677314 -1.652797,7.096622 1.416706,1.419307 4.7223,0.709695 7.083366,-1.655901 2.124976,-2.129003 2.833329,-4.731109 2.12506,-6.387009 l 2.597156,-2.602107 c 0.472263,0.236592 1.180618,0.236592 1.416707,-0.236509 l 1.889223,-1.892494 c 4.486035,4.967702 7.319285,11.354712 7.791635,18.451335 h -3.06985 c -0.47234,0 -1.18044,0.473103 -1.18044,0.946204 h -2.833244 c -0.708101,-0.946204 -1.88939,-2.602106 -2.360899,-2.602106 h -9.208679 c -0.708353,0 -1.416622,0.709696 -1.416622,1.419392 v 0.236509 h 9.444431 c 0.236091,0 0.47218,0.236593 0.47218,0.709695 0,0.473103 -0.236089,0.709613 -0.47218,0.709613 h -9.44443 v 1.182798 h 9.44443 c 0.236091,0 0.47218,0.236593 0.47218,0.709696 0,0.473102 -0.236089,0.709612 -0.47218,0.709612 h -9.44443 v 0.473186 c 0,0.709611 0.708269,1.182714 1.416622,1.182714 h 9.208679 c 0.471509,0 1.652797,-1.6559 2.360898,-2.838615 h 2.597484 c 0.23576,0.473103 0.70811,0.946205 1.18045,0.946205 h 3.069 c -0.23575,7.333215 -3.069,13.720222 -7.555036,18.687832 z M 68.270855,87.076267 c 0,-3.548311 2.83333,-6.623519 6.611101,-6.623519 3.541684,0 6.611103,2.838615 6.611103,6.623519 0,3.548311 -2.83333,6.623519 -6.611103,6.623519 -3.541681,0 -6.611101,-2.838614 -6.611101,-6.623519 z m 43.444725,1.655901 c -0.9447,0 -1.6528,-0.709696 -1.6528,-1.655901 0,-0.946205 0.7081,-1.655901 1.6528,-1.655901 0.94386,0 1.65279,0.709696 1.65279,1.655901 0,0.946205 -0.70893,1.655901 -1.65279,1.655901 z"
     id="path2"
     style="opacity:1;fill:#ffd600;fill-opacity:1;stroke-width:0.83898306"
     inkscape:connector-curvature="0" />
  <path
     style="opacity:1;fill:#ffd600;fill-opacity:1;fill-rule:evenodd;stroke:none;stroke-width:5.94141722;stroke-miterlimit:4;stroke-dasharray:none"
     d="M -0.8651535,0 V 21.60938 H 150.08796 V 0 Z M 37.29305,3.17383 c 1.902777,0 3.45204,0.60894 4.646484,1.82422 1.194444,1.21528 1.791016,2.75217 1.791016,4.61328 v 2.73047 c 0,1.86805 -0.59375,3.40972 -1.78125,4.625 -1.180556,1.20833 -2.725044,1.8125 -4.634766,1.8125 -1.923611,0 -3.48329,-0.60417 -4.677734,-1.8125 -1.194445,-1.21528 -1.791016,-2.75695 -1.791016,-4.625 V 9.61133 c 0,-1.86111 0.59375,-3.398 1.78125,-4.61328 1.194444,-1.21528 2.749349,-1.82422 4.666016,-1.82422 z m 60.125,0 c 1.902778,0 3.45204,0.60894 4.64647,1.82422 1.19446,1.21528 1.79103,2.75217 1.79103,4.61328 v 2.73047 c 0,1.86805 -0.59375,3.40972 -1.78125,4.625 -1.18054,1.20833 -2.725042,1.8125 -4.634766,1.8125 -1.923611,0 -3.48329,-0.60417 -4.677734,-1.8125 -1.194445,-1.21528 -1.791016,-2.75695 -1.791016,-4.625 V 9.61133 c 0,-1.86111 0.59375,-3.398 1.78125,-4.61328 1.194444,-1.21528 2.749349,-1.82422 4.666016,-1.82422 z m 14.41796,0 c 1.9375,0 3.39866,0.43468 4.38478,1.30273 0.99304,0.86111 1.47221,2.04102 1.4375,3.54102 l -0.0215,0.0625 H 114.336 c 0,-0.74306 -0.19791,-1.29514 -0.59375,-1.65625 -0.39583,-0.36111 -0.99436,-0.54102 -1.79296,-0.54102 -0.81944,0 -1.47851,0.32292 -1.97851,0.96875 -0.50002,0.64584 -0.75,1.48677 -0.75,2.52149 v 3.1875 c 0,1.05555 0.24716,1.90495 0.74022,2.55078 0.5,0.63889 1.19792,0.95898 2.09375,0.95898 0.64584,0 1.15149,-0.0521 1.51954,-0.15625 0.375,-0.10416 0.67144,-0.2424 0.88671,-0.41601 v -2.70899 h -2.6875 v -2.33398 h 6.20704 v 6.01172 c -0.52779,0.63889 -1.27018,1.18338 -2.22853,1.63476 -0.95833,0.45139 -2.19032,0.67774 -3.69726,0.67774 -1.88195,0 -3.41037,-0.57769 -4.58397,-1.73047 -1.17362,-1.15278 -1.75978,-2.648 -1.75978,-4.48828 V 9.39258 c 0,-1.82639 0.56814,-3.31879 1.70704,-4.47852 1.14583,-1.15972 2.61936,-1.74023 4.41796,-1.74023 z m 14.41601,0 c 1.90278,0 3.45204,0.60894 4.64649,1.82422 1.19444,1.21528 1.79101,2.75217 1.79101,4.61328 v 2.73047 c 0,1.86805 -0.59374,3.40972 -1.78124,4.625 -1.18056,1.20833 -2.72505,1.8125 -4.63477,1.8125 -1.9236,0 -3.48328,-0.60417 -4.67772,-1.8125 -1.19446,-1.21528 -1.79103,-2.75695 -1.79103,-4.625 V 9.61133 c 0,-1.86111 0.59375,-3.398 1.78125,-4.61328 1.19444,-1.21528 2.74936,-1.82422 4.66601,-1.82422 z M 16.533284,3.39258 h 3.8125 l 3.009766,6.625 h 0.0625 l 3.021484,-6.625 h 3.8125 l -5.146484,9.83398 v 5.33399 h -3.509766 v -5.49024 z m 29.25,0 h 3.53125 v 9.83398 c 0,0.9375 0.242404,1.64584 0.728516,2.125 0.486111,0.47917 1.160373,0.71875 2.021484,0.71875 0.854167,0 1.518012,-0.23676 1.990234,-0.70898 0.479167,-0.47917 0.71875,-1.19032 0.71875,-2.13477 V 3.39258 h 3.53125 v 9.83398 c 0,1.73612 -0.577691,3.09788 -1.730468,4.08399 -1.152778,0.97916 -2.655599,1.46875 -4.509766,1.46875 -1.868056,0 -3.381293,-0.48959 -4.541016,-1.46875 -1.159722,-0.98611 -1.740234,-2.34787 -1.740234,-4.08399 z m 14.84375,0 h 5.28125 c 1.756944,0 3.149957,0.40625 4.177734,1.21875 1.027778,0.8125 1.541016,1.92426 1.541016,3.33398 0,0.78473 -0.208333,1.45899 -0.625,2.02149 -0.409722,0.5625 -1.01671,1.02083 -1.822266,1.375 0.930556,0.26389 1.597223,0.70421 2,1.32226 0.409723,0.61112 0.613282,1.37435 0.613282,2.29102 v 0.95898 c 0,0.39584 0.05968,0.84657 0.177734,1.35352 0.118056,0.50694 0.323568,0.86871 0.615234,1.08398 v 0.20899 H 68.9493 c -0.277778,-0.21528 -0.457683,-0.59505 -0.541016,-1.13672 -0.08333,-0.54167 -0.125,-1.05208 -0.125,-1.53125 v -0.91602 c 0,-0.72222 -0.190321,-1.2743 -0.572266,-1.65625 -0.381944,-0.38194 -0.941623,-0.57226 -1.677734,-0.57226 h -1.884766 v 5.8125 h -3.521484 z m 18.958984,0 h 3.519532 v 12.45898 h 6.511718 v 2.70899 H 79.586018 Z M 37.29305,5.88281 c -0.951389,0 -1.680556,0.34658 -2.1875,1.04102 -0.5,0.6875 -0.75,1.57769 -0.75,2.66797 v 2.75 c 0,1.09722 0.254774,1.99305 0.761718,2.6875 0.513889,0.69444 1.245877,1.04101 2.197266,1.04101 0.923611,0 1.63954,-0.34657 2.146484,-1.04101 0.506945,-0.69445 0.759766,-1.59028 0.759766,-2.6875 v -2.75 c 0,-1.08333 -0.257595,-1.97353 -0.771484,-2.66797 C 38.942355,6.22939 38.223605,5.88281 37.29305,5.88281 Z m 60.125,0 c -0.951389,0 -1.680556,0.34658 -2.1875,1.04102 -0.5,0.6875 -0.75,1.57769 -0.75,2.66797 v 2.75 c 0,1.09722 0.254774,1.99305 0.761718,2.6875 0.513889,0.69444 1.245877,1.04101 2.197266,1.04101 0.92361,0 1.639544,-0.34657 2.146484,-1.04101 0.506942,-0.69445 0.759782,-1.59028 0.759782,-2.6875 v -2.75 c 0,-1.08333 -0.2576,-1.97353 -0.771492,-2.66797 C 99.067358,6.22939 98.348604,5.88281 97.41805,5.88281 Z m 28.83397,0 c -0.95138,0 -1.68054,0.34658 -2.1875,1.04102 -0.5,0.6875 -0.75,1.57769 -0.75,2.66797 v 2.75 c 0,1.09722 0.25284,1.99305 0.75978,2.6875 0.51389,0.69444 1.24782,1.04101 2.19921,1.04101 0.92361,0 1.63759,-0.34657 2.14453,-1.04101 0.50695,-0.69445 0.76172,-1.59028 0.76172,-2.6875 v -2.75 c 0,-1.08333 -0.2576,-1.97353 -0.77148,-2.66797 -0.50695,-0.69444 -1.2257,-1.04102 -2.15626,-1.04102 z M 64.148518,6.10156 v 3.9375 h 1.78125 c 0.708334,0 1.25,-0.15907 1.625,-0.47851 0.375,-0.32639 0.5625,-0.79232 0.5625,-1.39649 0,-0.61805 -0.195095,-1.11523 -0.583984,-1.49023 -0.381944,-0.38194 -0.923611,-0.57227 -1.625,-0.57227 z"
     id="rect881"
     inkscape:connector-curvature="0" />
</svg>
